<svg width="60" height="74" viewBox="0 0 60 74" fill="none" xmlns="http://www.w3.org/2000/svg">
<path d="M58.1205 25.2835C53.2048 28.3211 50.1687 33.5284 50.1687 39.3144C50.1687 45.8235 54.0723 51.7541 60 54.2131C58.8434 57.974 57.1084 61.4455 54.9398 64.6278C51.759 69.1119 48.4337 73.7406 43.5181 73.7406C38.6024 73.7406 37.1566 70.8476 31.3735 70.8476C25.7349 70.8476 23.7108 73.8852 19.0843 73.8852C14.4578 73.8852 11.2771 69.6904 7.66265 64.4831C2.89157 57.2507 0.144578 48.8611 0 40.0376C0 25.7174 9.25301 18.0511 18.506 18.0511C23.4217 18.0511 27.4699 21.2334 30.506 21.2334C33.3976 21.2334 38.0241 17.9065 43.5181 17.9065C49.3012 17.7618 54.7952 20.5101 58.1205 25.2835ZM40.9157 11.8312C43.3735 8.93828 44.6747 5.32207 44.8193 1.56123C44.8193 1.12728 44.8193 0.54869 44.6747 0.114746C40.4819 0.54869 36.5783 2.57376 33.8313 5.75602C31.3735 8.50433 29.9277 11.9759 29.7831 15.7367C29.7831 16.1707 29.7831 16.6046 29.9277 17.0386C30.2169 17.0386 30.6506 17.1832 30.9398 17.1832C34.8434 16.8939 38.4578 14.8688 40.9157 11.8312Z" fill="black"/>
</svg>
