<svg width="25" height="24" viewBox="0 0 25 24" fill="none" xmlns="http://www.w3.org/2000/svg">
<path d="M12.8426 0C9.86387 0 7.41885 2.08062 7.41885 4.61538V5.53846H2.06238L1.99513 6.40431L0.91038 23.0197L0.842041 24H24.842L24.7748 23.0188L23.69 6.40338L23.6217 5.53846H18.2663V4.61538C18.2663 2.08062 15.8213 0 12.8426 0ZM12.8426 1.84615C13.7057 1.84615 14.5334 2.13791 15.1437 2.65724C15.754 3.17657 16.0968 3.88094 16.0968 4.61538V5.53846H9.58835V4.61538C9.58835 3.88094 9.9312 3.17657 10.5415 2.65724C11.1518 2.13791 11.9795 1.84615 12.8426 1.84615ZM4.09628 7.38462H7.41885V10.1538H9.58835V7.38462H16.0968V10.1538H18.2663V7.38462H21.5889L22.538 22.1538H3.14821L4.09628 7.38462Z" fill="#343A40"/>
</svg>
