<svg width="25" height="18" viewBox="0 0 25 18" fill="none" xmlns="http://www.w3.org/2000/svg">
<path d="M21.8 5V3C21.8 1.35 20.45 0 18.8 0H14.8C14.03 0 13.33 0.3 12.8 0.78C12.27 0.3 11.57 0 10.8 0H6.80005C5.15005 0 3.80005 1.35 3.80005 3V5C2.15005 5 0.800049 6.35 0.800049 8V13C0.800049 14.65 2.15005 16 3.80005 16V18H5.80005V16H19.8V18H21.8V16C23.45 16 24.8 14.65 24.8 13V8C24.8 6.35 23.45 5 21.8 5ZM14.8 2H18.8C19.35 2 19.8 2.45 19.8 3V5.78C19.19 6.33 18.8 7.12 18.8 8V10H13.8V3C13.8 2.45 14.25 2 14.8 2ZM5.80005 3C5.80005 2.45 6.25005 2 6.80005 2H10.8C11.35 2 11.8 2.45 11.8 3V10H6.80005V8C6.80005 7.12 6.41005 6.33 5.80005 5.78V3ZM22.8 13C22.8 13.55 22.35 14 21.8 14H3.80005C3.25005 14 2.80005 13.55 2.80005 13V8C2.80005 7.45 3.25005 7 3.80005 7C4.35005 7 4.80005 7.45 4.80005 8V12H20.8V8C20.8 7.45 21.25 7 21.8 7C22.35 7 22.8 7.45 22.8 8V13Z" fill="#343A40"/>
</svg>
