<svg width="25" height="24" viewBox="0 0 27 24" fill="none" xmlns="http://www.w3.org/2000/svg">
<path d="M14.0519 20.3379L13.9211 20.4687L13.7772 20.3379C7.56466 14.7008 3.45784 10.9733 3.45784 7.19346C3.45784 4.57766 5.4197 2.6158 8.0355 2.6158C10.0497 2.6158 12.0115 3.92371 12.7047 5.70245H15.1374C15.8306 3.92371 17.7924 2.6158 19.8066 2.6158C22.4224 2.6158 24.3843 4.57766 24.3843 7.19346C24.3843 10.9733 20.2775 14.7008 14.0519 20.3379ZM19.8066 0C17.5309 0 15.3467 1.0594 13.9211 2.72044C12.4954 1.0594 10.3113 0 8.0355 0C4.00716 0 0.842041 3.15204 0.842041 7.19346C0.842041 12.1243 5.28891 16.1657 12.0246 22.2736L13.9211 24L15.8175 22.2736C22.5532 16.1657 27.0001 12.1243 27.0001 7.19346C27.0001 3.15204 23.835 0 19.8066 0Z" fill="#343A40"/>
</svg>
