<svg width="24" height="24" viewBox="0 0 24 24" fill="none" xmlns="http://www.w3.org/2000/svg">
<path d="M13.1311 1.43509C12.8311 1.13517 12.4242 0.966675 12 0.966675C11.5758 0.966675 11.1689 1.13517 10.8689 1.43509L0.234591 12.0678C0.160216 12.1422 0.101219 12.2305 0.0609682 12.3276C0.020717 12.4248 0 12.529 0 12.6342C0 12.7393 0.020717 12.8435 0.0609682 12.9407C0.101219 13.0378 0.160216 13.1261 0.234591 13.2005C0.384797 13.3507 0.58852 13.4351 0.800943 13.4351C0.906124 13.4351 1.01028 13.4144 1.10745 13.3741C1.20463 13.3339 1.29292 13.2749 1.3673 13.2005L2.40081 12.1654V20.6335C2.40081 21.2699 2.65364 21.8803 3.10369 22.3304C3.55374 22.7804 4.16414 23.0333 4.80061 23.0333H19.1994C19.8359 23.0333 20.4463 22.7804 20.8963 22.3304C21.3464 21.8803 21.5992 21.2699 21.5992 20.6335V12.1654L22.6327 13.2005C22.7829 13.3507 22.9866 13.4351 23.1991 13.4351C23.4115 13.4351 23.6152 13.3507 23.7654 13.2005C23.9156 13.0503 24 12.8466 24 12.6342C24 12.4217 23.9156 12.218 23.7654 12.0678L19.9993 8.30332V3.03496C19.9993 2.8228 19.915 2.61934 19.765 2.46932C19.615 2.3193 19.4115 2.23503 19.1994 2.23503H17.5995C17.3874 2.23503 17.1839 2.3193 17.0339 2.46932C16.8839 2.61934 16.7996 2.8228 16.7996 3.03496V5.10358L13.1311 1.43509ZM19.9993 10.5655V20.6335C19.9993 20.8456 19.915 21.0491 19.765 21.1991C19.615 21.3491 19.4115 21.4334 19.1994 21.4334H4.80061C4.58845 21.4334 4.38498 21.3491 4.23497 21.1991C4.08495 21.0491 4.00067 20.8456 4.00067 20.6335V10.5655L12 2.5662L19.9993 10.5655Z" fill="#343A40"/>
</svg>
