<svg width="17" height="22" viewBox="0 0 17 22" fill="none" xmlns="http://www.w3.org/2000/svg">
<path d="M8.25001 21.5L1.92301 14.0382C1.83509 13.9262 1.74809 13.8135 1.66201 13.7C0.581244 12.2763 -0.00261089 10.5374 8.77716e-06 8.75C8.77716e-06 6.56196 0.869203 4.46354 2.41638 2.91637C3.96355 1.36919 6.06197 0.5 8.25001 0.5C10.438 0.5 12.5365 1.36919 14.0836 2.91637C15.6308 4.46354 16.5 6.56196 16.5 8.75C16.5026 10.5366 15.919 12.2747 14.8388 13.6978L14.838 13.7C14.838 13.7 14.613 13.9955 14.5793 14.0353L8.25001 21.5ZM2.85976 12.7963C2.85976 12.7963 3.03451 13.0272 3.07426 13.0767L8.25001 19.181L13.4325 13.0685C13.4655 13.0272 13.641 12.7948 13.6418 12.794C14.5246 11.6308 15.0017 10.2103 15 8.75C15 6.95979 14.2888 5.2429 13.023 3.97703C11.7571 2.71116 10.0402 2 8.25001 2C6.4598 2 4.74291 2.71116 3.47704 3.97703C2.21117 5.2429 1.50001 6.95979 1.50001 8.75C1.49844 10.2112 1.97609 11.6326 2.85976 12.7963Z" fill="black"/>
<path d="M8.26304 12C7.52033 12 6.79429 11.7801 6.17675 11.368C5.55921 10.956 5.07789 10.3703 4.79366 9.68506C4.50944 8.99984 4.43507 8.24584 4.57997 7.51841C4.72487 6.79098 5.08252 6.1228 5.6077 5.59835C6.13287 5.0739 6.80199 4.71675 7.53044 4.57206C8.25888 4.42736 9.01393 4.50162 9.70011 4.78545C10.3863 5.06928 10.9728 5.54993 11.3854 6.16661C11.798 6.7833 12.0183 7.50832 12.0183 8.25C12.0171 9.2442 11.6211 10.1973 10.9171 10.9003C10.2131 11.6033 9.25863 11.9988 8.26304 12ZM8.26304 6C7.81742 6 7.38179 6.13196 7.01127 6.3792C6.64074 6.62643 6.35195 6.97783 6.18142 7.38896C6.01088 7.8001 5.96626 8.2525 6.0532 8.68896C6.14014 9.12541 6.35473 9.52632 6.66983 9.84099C6.98494 10.1557 7.38641 10.37 7.82348 10.4568C8.26054 10.5436 8.71357 10.499 9.12528 10.3287C9.53699 10.1584 9.88888 9.87005 10.1365 9.50004C10.384 9.13002 10.5162 8.69501 10.5162 8.25C10.5156 7.65345 10.278 7.0815 9.85559 6.65967C9.43318 6.23784 8.86043 6.0006 8.26304 6Z" fill="black"/>
</svg>
