<svg width="60" height="74" viewBox="0 0 60 38" fill="none" xmlns="http://www.w3.org/2000/svg">
<g clip-path="url(#clip0_135_232)">
<path d="M38.106 4.44238H21.8828V33.5576H38.106V4.44238Z" fill="#FF5F00"/>
<path d="M22.9149 18.9999C22.9149 13.3414 25.5415 7.94018 29.9707 4.44224C21.9364 -1.88492 10.2969 -0.496034 3.96214 7.5801C-2.37262 15.6048 -0.982066 27.2303 7.10377 33.5575C13.8506 38.8558 23.2754 38.8558 30.0222 33.5575C25.5415 30.0595 22.9149 24.6583 22.9149 18.9999Z" fill="#EB001B"/>
<path d="M59.9977 18.9999C59.9977 29.2365 51.7058 37.5184 41.4569 37.5184C37.2852 37.5184 33.2681 36.1295 30.0234 33.5575C38.0578 27.2303 39.4483 15.6048 33.1136 7.52866C32.1865 6.39697 31.1565 5.31672 30.0234 4.44224C38.0578 -1.88492 49.7488 -0.496034 56.032 7.5801C58.6071 10.8208 59.9977 14.8332 59.9977 18.9999Z" fill="#F79E1B"/>
<path d="M58.2433 30.4711V29.8539H58.5008V29.751H57.8828V29.8539H58.1403V30.4711H58.2433ZM59.4279 30.4711V29.751H59.2219L59.0159 30.2654L58.8098 29.751H58.6038V30.4711H58.7583V29.9053L58.9644 30.3683H59.1189L59.3249 29.9053V30.4711H59.4279Z" fill="#F79E1B"/>
</g>
<defs>
<clipPath id="clip0_135_232">
<rect width="60" height="37.037" fill="white" transform="translate(0 0.481445)"/>
</clipPath>
</defs>
</svg>
