<svg width="60" height="60" viewBox="0 0 60 60" fill="none" xmlns="http://www.w3.org/2000/svg">
<path d="M47.4637 17.2748C47.5975 10.3185 41.8575 4.97852 33.965 4.97852H17.6425C17.262 4.97864 16.894 5.11456 16.6048 5.36181C16.3157 5.60907 16.1242 5.95142 16.065 6.32727L9.52371 47.1973C9.49445 47.3825 9.50567 47.5718 9.5566 47.7522C9.60753 47.9327 9.69696 48.0999 9.81873 48.2425C9.9405 48.385 10.0917 48.4995 10.262 48.578C10.4322 48.6565 10.6175 48.6972 10.805 48.6973H20.4762L18.9637 58.1623C18.9344 58.3476 18.9457 58.537 18.9967 58.7175C19.0477 58.898 19.1372 59.0654 19.2591 59.2079C19.381 59.3505 19.5324 59.465 19.7028 59.5434C19.8732 59.6218 20.0586 59.6624 20.2462 59.6623H28.1237C28.505 59.6623 28.8437 59.5248 29.1325 59.2785C29.4212 59.031 29.4687 58.6898 29.5275 58.3135L31.84 44.7073C31.8987 44.3323 32.09 43.8448 32.38 43.5973C32.6687 43.3498 32.9212 43.2148 33.3012 43.2135H38.1237C45.8525 43.2135 52.4112 37.721 53.61 30.0798C54.4575 24.6548 52.1312 19.721 47.4637 17.2748Z" fill="#001C64"/>
<path d="M22.57 33.625L20.1612 48.9L18.6487 58.48C18.6194 58.6653 18.6307 58.8548 18.6817 59.0353C18.7327 59.2158 18.8222 59.3831 18.9441 59.5257C19.066 59.6683 19.2174 59.7827 19.3878 59.8612C19.5582 59.9396 19.7436 59.9802 19.9312 59.98H28.2687C28.649 59.9796 29.0166 59.8435 29.3056 59.5963C29.5945 59.3491 29.7857 59.0069 29.845 58.6313L32.0425 44.7063C32.1017 44.3308 32.293 43.9887 32.582 43.7417C32.8709 43.4947 33.2386 43.3589 33.6187 43.3588H38.5275C46.2562 43.3588 52.8137 37.7213 54.0125 30.08C54.8625 24.6563 52.1325 19.7225 47.465 17.275C47.4525 17.8525 47.4025 18.4288 47.3137 19C46.115 26.64 39.5562 32.2788 31.8275 32.2788H24.1462C23.7662 32.2788 23.3988 32.4145 23.1098 32.6612C22.8209 32.908 22.6295 33.2497 22.57 33.625Z" fill="#0070E0"/>
<path d="M20.1614 48.9002H10.4614C10.2739 48.9004 10.0885 48.8598 9.91816 48.7814C9.7478 48.7029 9.59649 48.5885 9.47468 48.4458C9.35287 48.3032 9.26345 48.1359 9.21261 47.9554C9.16176 47.7748 9.1507 47.5854 9.18018 47.4002L15.7202 5.9227C15.7794 5.54697 15.9709 5.20477 16.2602 4.95772C16.5494 4.71067 16.9173 4.57502 17.2977 4.5752H33.9689C41.8602 4.5752 47.6002 10.3189 47.4664 17.2752C45.5027 16.2452 43.1952 15.6564 40.6664 15.6564H26.7677C26.3876 15.6568 26.0201 15.7927 25.7312 16.0397C25.4423 16.2867 25.2509 16.6285 25.1914 17.0039L22.5727 33.6252L20.1614 48.9002Z" fill="#003087"/>
</svg>
