<svg width="13" height="16" viewBox="0 0 13 16" fill="none" xmlns="http://www.w3.org/2000/svg">
<path d="M3.4372 0.0870454L2.7202 0.303045C2.08177 0.495574 1.51164 0.866472 1.07689 1.37208C0.642139 1.8777 0.360873 2.49698 0.266196 3.15705C-0.030804 5.22505 0.633196 7.64305 2.2342 10.416C3.8312 13.182 5.5892 14.964 7.5242 15.744C8.14592 15.9946 8.82653 16.0614 9.4851 15.9364C10.1437 15.8114 10.7525 15.5 11.2392 15.039L11.7812 14.525C12.1331 14.192 12.3522 13.7424 12.3976 13.26C12.443 12.7775 12.3118 12.295 12.0282 11.902L10.6722 10.022C10.4889 9.76824 10.2307 9.57816 9.93392 9.47845C9.63713 9.37875 9.31658 9.37441 9.0172 9.46605L6.9662 10.093L6.9132 10.103C6.6872 10.136 6.1652 9.64705 5.5152 8.52105C4.8352 7.34305 4.6952 6.65405 4.8822 6.47605L5.9252 5.50305C6.30622 5.14725 6.5665 4.68125 6.6696 4.17023C6.7727 3.65921 6.71347 3.12874 6.5002 2.65305L5.8382 1.18205C5.63913 0.739388 5.28589 0.384224 4.84432 0.182758C4.40275 -0.0187079 3.90199 -0.0527259 3.4372 0.0870454ZM4.9282 1.59205L5.5882 3.06305C5.71628 3.34836 5.75198 3.66658 5.6903 3.97319C5.62862 4.27979 5.47264 4.55945 5.2442 4.77305L4.1982 5.74705C3.5282 6.38104 3.7502 7.46305 4.6502 9.02105C5.4962 10.487 6.2682 11.211 7.0982 11.085L7.2222 11.059L9.3102 10.422C9.41 10.3914 9.5169 10.3927 9.6159 10.4259C9.71489 10.4591 9.80102 10.5224 9.8622 10.607L11.2182 12.487C11.3602 12.6835 11.426 12.9248 11.4034 13.1662C11.3807 13.4075 11.2712 13.6324 11.0952 13.799L10.5522 14.313C10.2045 14.6421 9.76974 14.8644 9.29945 14.9535C8.82916 15.0427 8.34316 14.995 7.8992 14.816C6.2012 14.132 4.5962 12.505 3.1012 9.91605C1.6022 7.32105 0.995196 5.11405 1.2562 3.29905C1.32376 2.82748 1.52465 2.38503 1.83522 2.02379C2.14578 1.66256 2.55309 1.39757 3.0092 1.26005L3.7262 1.04405C3.95865 0.974194 4.20858 0.991275 4.42938 1.0921C4.65017 1.19293 4.82675 1.37063 4.9262 1.59205" fill="black"/>
</svg>
