<svg width="19" height="19" viewBox="0 0 19 19" fill="none" xmlns="http://www.w3.org/2000/svg">
<path d="M17.5472 18.6009C18.0072 19.0609 18.7172 18.3509 18.2572 17.9009L14.5072 14.1409C15.823 12.6856 16.5501 10.7928 16.5472 8.83088C16.5472 4.44088 12.9772 0.87088 8.5872 0.87088C4.1972 0.87088 0.627197 4.44088 0.627197 8.83088C0.627197 13.2209 4.1972 16.7909 8.5872 16.7909C10.5672 16.7909 12.3972 16.0609 13.7972 14.8509L17.5472 18.6009ZM1.6262 8.83088C1.6262 4.99088 4.7562 1.87088 8.5862 1.87088C12.4262 1.87088 15.5462 4.99088 15.5462 8.83088C15.5462 12.6709 12.4262 15.7909 8.5862 15.7909C4.7562 15.7909 1.6262 12.6709 1.6262 8.83088Z" fill="#B3BAC2"/>
</svg>
