<svg width="25" height="26" viewBox="0 0 25 26" fill="none" xmlns="http://www.w3.org/2000/svg">
<path d="M24.2141 1.11405C24.1423 0.935299 24.0044 0.7911 23.829 0.711453C23.6536 0.631805 23.4543 0.62284 23.2725 0.686423C23.0906 0.750006 22.9403 0.881241 22.8528 1.05283C22.7653 1.22441 22.7473 1.42314 22.8025 1.60766C23.9518 4.9108 21.6706 7.37763 19.9312 8.69888L19.2285 7.69186C18.9922 7.35412 18.4639 7.0733 18.0532 7.06835L14.1092 7.08567C13.6274 7.10022 13.1585 7.24469 12.7521 7.50382L1.13052 15.6528C0.860203 15.843 0.676273 16.1326 0.619001 16.4581C0.56173 16.7837 0.635785 17.1186 0.824952 17.3897L6.10625 24.9461C6.50213 25.509 7.13431 25.4409 7.69844 25.0475L19.32 16.8973C19.654 16.661 20.04 16.1513 20.1761 15.7616L21.4108 11.8709C21.5468 11.4824 21.464 10.8898 21.2277 10.5521L20.7996 9.93848C23.1353 8.14836 25.5601 4.98502 24.2141 1.11405ZM18.8066 12.6911C18.5925 12.841 18.351 12.9472 18.0958 13.0037C17.8407 13.0601 17.5769 13.0658 17.3195 13.0203C17.0622 12.9748 16.8163 12.8791 16.596 12.7385C16.3757 12.598 16.1852 12.4154 16.0354 12.2012C15.7323 11.7678 15.6134 11.2318 15.705 10.7108C15.7967 10.1899 16.0912 9.72657 16.5241 9.4226C16.8635 9.18484 17.2686 9.05906 17.683 9.06283C18.0973 9.0666 18.5001 9.19974 18.8351 9.44363C18.4986 9.64652 18.2672 9.76529 18.2239 9.78384C18.0706 9.85696 17.9466 9.98 17.8723 10.1328C17.798 10.2856 17.7779 10.4591 17.8151 10.6249C17.8523 10.7906 17.9448 10.9388 18.0773 11.0452C18.2098 11.1515 18.3744 11.2097 18.5443 11.2103C18.6507 11.2103 18.7596 11.1855 18.8623 11.1373C19.1023 11.0234 19.3596 10.8886 19.6281 10.729C19.6898 11.1002 19.6455 11.4813 19.5001 11.8285C19.3548 12.1756 19.1144 12.4746 18.8066 12.6911Z" fill="#343A40"/>
</svg>
