<svg width="60" height="74" viewBox="0 0 60 20" fill="none" xmlns="http://www.w3.org/2000/svg">
<g clip-path="url(#clip0_135_240)">
<path d="M39.0926 0.300049C34.838 0.300049 31.0179 2.51393 31.0179 6.57652C31.0179 11.2553 37.7659 11.5749 37.7659 13.9029C37.7659 14.8843 36.6222 15.7744 34.7007 15.7744C31.9558 15.7744 29.8971 14.5419 29.8971 14.5419L29.0278 18.6502C29.0278 18.6502 31.3839 19.7 34.5406 19.7C39.207 19.7 42.8669 17.3949 42.8669 13.241C42.8669 8.31111 36.0961 7.99158 36.0961 5.82334C36.0961 5.04734 37.0339 4.20287 38.9554 4.20287C41.1285 4.20287 42.9127 5.09299 42.9127 5.09299L43.7819 1.1217C43.7591 1.1217 41.8147 0.300049 39.0926 0.300049ZM0.114373 0.596755L0 1.19017C0 1.19017 1.78422 1.5097 3.40831 2.17158C5.4899 2.92475 5.62715 3.3584 5.99314 4.70499L9.81319 19.3805H14.9371L22.7831 0.596755H17.682L12.6268 13.3779L10.5681 2.53675C10.3851 1.30428 9.42432 0.596755 8.23485 0.596755H0.114373ZM24.8418 0.596755L20.8387 19.3805H25.711L29.6912 0.596755H24.8418ZM51.971 0.596755C50.8044 0.596755 50.1868 1.21299 49.7293 2.30852L42.5925 19.3805H47.6935L48.6771 16.5276H54.899L55.4937 19.3805H60L56.0885 0.596755H51.971ZM52.6344 5.6864L54.1441 12.7389H50.0953L52.6344 5.6864Z" fill="#1434CB"/>
</g>
<defs>
<clipPath id="clip0_135_240">
<rect width="60" height="19.4" fill="white" transform="translate(0 0.300049)"/>
</clipPath>
</defs>
</svg>
